<svg width="17" height="17" viewBox="0 0 17 17" fill="none" xmlns="http://www.w3.org/2000/svg">
<path fill-rule="evenodd" clip-rule="evenodd" d="M6.83923 2.63624C7.11536 2.63797 7.3378 2.86322 7.33605 3.13935L7.33244 3.70981H10.0976L10.1012 3.13311C10.103 2.85697 10.3282 2.63452 10.6044 2.63624C10.8805 2.63797 11.1029 2.86322 11.1012 3.13935L11.0976 3.70981H12.9609C13.7894 3.70981 14.4609 4.38138 14.4609 5.20981V6.11282V7.11282V13.1429C14.4609 13.9713 13.7894 14.6429 12.9609 14.6429H4.96094C4.13251 14.6429 3.46094 13.9713 3.46094 13.1429V7.11282V6.11282V5.20981C3.46094 4.38138 4.13251 3.70981 4.96094 3.70981H6.33242L6.33607 3.13311C6.33782 2.85697 6.56309 2.63452 6.83923 2.63624ZM10.0912 4.70981L10.0886 5.11969C10.0869 5.39582 10.3093 5.62108 10.5855 5.6228C10.8616 5.62453 11.0869 5.40207 11.0886 5.12594L11.0912 4.70981H12.9609C13.2371 4.70981 13.4609 4.93367 13.4609 5.20981V6.11282H4.46094V5.20981C4.46094 4.93367 4.68479 4.70981 4.96094 4.70981H6.32609L6.32349 5.11969C6.32174 5.39582 6.54418 5.62108 6.82032 5.6228C7.09645 5.62453 7.32172 5.40207 7.32347 5.12594L7.32611 4.70981H10.0912ZM4.46094 7.11282V13.1429C4.46094 13.4191 4.6848 13.6429 4.96094 13.6429H12.9609C13.2371 13.6429 13.4609 13.4191 13.4609 13.1429V7.11282H4.46094Z" fill="#8A8A8A"/>
</svg>
