<svg width="16" height="18" viewBox="0 0 16 18" fill="none" xmlns="http://www.w3.org/2000/svg">
<ellipse cx="7.95959" cy="10.2278" rx="6.46082" ry="6.46283" fill="#F9483E" stroke="#CC2A28" stroke-width="0.5"/>
<ellipse cx="7.93689" cy="10.2934" rx="5.56409" ry="5.58585" fill="white"/>
<path fill-rule="evenodd" clip-rule="evenodd" d="M11.2661 8.73914C11.3386 8.85664 11.3021 9.01068 11.1846 9.08318L8.71698 10.6059C8.72112 10.6348 8.72327 10.6643 8.72327 10.6943C8.72327 11.0433 8.43393 11.3261 8.07703 11.3261C7.77262 11.3261 7.51737 11.1204 7.44886 10.8433C7.39179 10.8356 7.33527 10.8167 7.28245 10.7858L5.42527 9.69954C5.21074 9.57406 5.13855 9.29844 5.26403 9.08391C5.3895 8.86938 5.66513 8.79719 5.87966 8.92266L7.73684 10.0089C7.78061 10.0345 7.81846 10.0664 7.84991 10.1027C7.92057 10.0767 7.9971 10.0626 8.07703 10.0626C8.21754 10.0626 8.34758 10.1064 8.45361 10.1809L10.9221 8.65767C11.0396 8.58517 11.1936 8.62164 11.2661 8.73914Z" fill="#51342C"/>
<path d="M1.2259 3.03684C0.717573 3.58032 1.29627 4.91936 1.58135 5.36926L6.14148 3.03684C5.70333 2.74564 4.61232 1.84786 4.27992 1.66839C3.86442 1.44405 1.8613 2.35749 1.2259 3.03684Z" fill="#CC2A28"/>
<path d="M2.6367 4.03076C2.35969 3.9477 2.09604 3.05639 1.99883 2.62112C0.750493 3.56308 1.61076 4.38467 1.6046 4.76728C1.59845 5.14988 2.98296 4.13459 2.6367 4.03076Z" fill="#FE4739"/>
<path d="M14.7741 3.16941C15.2824 3.71288 14.7037 5.05192 14.4186 5.50183L9.85852 3.16941C10.2967 2.87821 11.3877 1.98043 11.7201 1.80095C12.1356 1.57662 14.1387 2.49006 14.7741 3.16941Z" fill="#CC2A28"/>
<path d="M13.3633 4.16333C13.6403 4.08027 13.904 3.18896 14.0012 2.75369C15.2495 3.69565 14.3892 4.51724 14.3954 4.89985C14.4015 5.28245 13.017 4.26716 13.3633 4.16333Z" fill="#FE4739"/>
<path d="M11.4084 16.0884L11.9963 16.8997" stroke="#6C676E" stroke-width="0.8" stroke-linecap="round"/>
<path d="M11.7024 16.4812L12.2903 17.2924" stroke="#A2B6BF" stroke-width="0.8" stroke-linecap="round"/>
<path d="M4.45142 15.8792L3.86355 16.6904" stroke="#6C676E" stroke-width="0.8" stroke-linecap="round"/>
<path d="M4.15747 16.2719L3.5696 17.0832" stroke="#A2B6BF" stroke-width="0.8" stroke-linecap="round"/>
<path fill-rule="evenodd" clip-rule="evenodd" d="M8.14233 5.37376C8.14233 5.20808 8.00802 5.07376 7.84233 5.07376C7.67665 5.07376 7.54233 5.20808 7.54233 5.37376V6.70744C7.54233 6.87313 7.67665 7.00744 7.84233 7.00744C8.00802 7.00744 8.14233 6.87313 8.14233 6.70744V5.37376ZM8.14233 14.289C8.14233 14.1234 8.00802 13.989 7.84233 13.989C7.67665 13.989 7.54233 14.1234 7.54233 14.289V15.6227C7.54233 15.7884 7.67665 15.9227 7.84233 15.9227C8.00802 15.9227 8.14233 15.7884 8.14233 15.6227V14.289ZM11.7961 10.5237C11.7961 10.4132 11.8857 10.3237 11.9961 10.3237H12.9495C13.06 10.3237 13.1495 10.4132 13.1495 10.5237C13.1495 10.6341 13.06 10.7237 12.9495 10.7237H11.9961C11.8857 10.7237 11.7961 10.6341 11.7961 10.5237ZM2.90972 10.3237C2.79926 10.3237 2.70972 10.4132 2.70972 10.5237C2.70972 10.6341 2.79926 10.7237 2.90972 10.7237H3.86307C3.97353 10.7237 4.06307 10.6341 4.06307 10.5237C4.06307 10.4132 3.97353 10.3237 3.86307 10.3237H2.90972ZM3.13179 12.9638C3.13179 12.881 3.19894 12.8138 3.28179 12.8138H4.08514V12.434C4.08514 12.3511 4.1523 12.284 4.23514 12.284C4.31799 12.284 4.38514 12.3511 4.38514 12.434V12.9638V13.1138H4.23514H3.28179C3.19894 13.1138 3.13179 13.0467 3.13179 12.9638ZM12.5777 12.7242C12.6605 12.7242 12.7277 12.7914 12.7277 12.8742C12.7277 12.9571 12.6605 13.0242 12.5777 13.0242H11.6243H11.4743V12.8742V12.3444C11.4743 12.2615 11.5415 12.1944 11.6243 12.1944C11.7072 12.1944 11.7743 12.2615 11.7743 12.3444V12.7242H12.5777ZM12.7277 8.07713C12.7277 8.15997 12.6605 8.22713 12.5777 8.22713H11.7743V8.60701C11.7743 8.68985 11.7072 8.75701 11.6243 8.75701C11.5415 8.75701 11.4743 8.68985 11.4743 8.60701V8.07713V7.92713H11.6243H12.5777C12.6605 7.92713 12.7277 7.99429 12.7277 8.07713ZM3.48296 8.22713C3.40012 8.22713 3.33296 8.15997 3.33296 8.07713C3.33296 7.99429 3.40012 7.92713 3.48296 7.92713H4.43632H4.58632V8.07713V8.60701C4.58632 8.68985 4.51916 8.75701 4.43632 8.75701C4.35347 8.75701 4.28632 8.68985 4.28632 8.60701V8.22713H3.48296ZM10.2984 5.7367C10.2155 5.7367 10.1484 5.80386 10.1484 5.8867V6.69006H9.76851C9.68567 6.69006 9.61851 6.75721 9.61851 6.84006C9.61851 6.9229 9.68567 6.99006 9.76851 6.99006H10.2984H10.4484V6.84006V5.8867C10.4484 5.80386 10.3812 5.7367 10.2984 5.7367ZM10.3823 15.0058C10.3823 15.0887 10.4494 15.1558 10.5323 15.1558C10.6151 15.1558 10.6823 15.0887 10.6823 15.0058V14.0525V13.9025H10.5323H10.0024C9.91955 13.9025 9.8524 13.9696 9.8524 14.0525C9.8524 14.1353 9.91955 14.2025 10.0024 14.2025H10.3823V15.0058ZM5.38726 5.60413C5.4701 5.60413 5.53726 5.67129 5.53726 5.75413V6.55749H5.91713C5.99998 6.55749 6.06713 6.62465 6.06713 6.70749C6.06713 6.79033 5.99998 6.85749 5.91713 6.85749H5.38726H5.23726V6.70749V5.75413C5.23726 5.67129 5.30441 5.60413 5.38726 5.60413ZM5.77114 15.1384C5.77114 15.2213 5.70399 15.2884 5.62114 15.2884C5.5383 15.2884 5.47114 15.2213 5.47114 15.1384V14.1851V14.0351H5.62114H6.15102C6.23386 14.0351 6.30102 14.1022 6.30102 14.1851C6.30102 14.2679 6.23386 14.3351 6.15102 14.3351H5.77114V15.1384Z" fill="#51342C"/>
<path fill-rule="evenodd" clip-rule="evenodd" d="M7.34253 1.65042C7.06639 1.65042 6.84253 1.87428 6.84253 2.15042C6.84253 2.42656 7.06639 2.65042 7.34253 2.65042H7.54233L7.54233 3.81038C7.54233 3.97607 7.67665 4.11038 7.84233 4.11038C8.00802 4.11038 8.14233 3.97607 8.14233 3.81038L8.14233 2.65042H8.34253C8.61867 2.65042 8.84253 2.42656 8.84253 2.15042C8.84253 1.87428 8.61867 1.65042 8.34253 1.65042H7.34253Z" fill="#86AEBA"/>
</svg>
