<svg width="12" height="16" viewBox="0 0 12 16" fill="none" xmlns="http://www.w3.org/2000/svg">
<path fill-rule="evenodd" clip-rule="evenodd" d="M1.5 6.8847C1.5 5.38871 1.95335 4.14614 2.71428 3.28469C3.4702 2.42892 4.55777 1.91589 5.90596 1.91589C7.26976 1.91589 8.40994 2.3942 9.20909 3.21072C10.0085 4.02754 10.5 5.21721 10.5 6.69932C10.5 7.37492 10.2263 8.16871 9.7654 9.01126C9.30894 9.84568 8.69392 10.6831 8.06866 11.4344C7.44483 12.184 6.81958 12.8375 6.34963 13.3041C6.17796 13.4745 6.0274 13.6196 5.9057 13.7349C5.79101 13.6263 5.6508 13.4911 5.49173 13.3331C5.03971 12.8842 4.43834 12.2543 3.83838 11.5284C3.23704 10.8008 2.64575 9.98721 2.20696 9.17091C1.7644 8.3476 1.5 7.56363 1.5 6.8847ZM6.23822 14.7895C6.23812 14.7896 6.23804 14.7897 5.90596 14.4159C5.57466 14.7904 5.57457 14.7903 5.57447 14.7902L5.57416 14.7899L5.57323 14.7891L5.57002 14.7863L5.5584 14.7759L5.51508 14.7368C5.47758 14.7029 5.42323 14.6532 5.35442 14.5891C5.21685 14.461 5.0213 14.2753 4.78708 14.0427C4.31922 13.578 3.69411 12.9235 3.06758 12.1655C2.44243 11.4091 1.80722 10.5393 1.32615 9.64438C0.848847 8.75644 0.5 7.80125 0.5 6.8847C0.5 5.18971 1.01504 3.69788 1.9648 2.62267C2.91956 1.54178 4.28496 0.915894 5.90596 0.915894C7.51134 0.915894 8.91818 1.48381 9.92376 2.51126C10.929 3.5384 11.5 4.99045 11.5 6.69932C11.5 7.6192 11.1369 8.58773 10.6427 9.49119C10.144 10.4028 9.48555 11.2951 8.8373 12.0741C8.18761 12.8547 7.53935 13.532 7.05418 14.0137C6.81129 14.2549 6.60854 14.4477 6.46597 14.5808C6.39466 14.6473 6.33835 14.6989 6.29954 14.7342L6.25475 14.7747L6.24277 14.7855L6.23948 14.7884L6.23853 14.7893L6.23822 14.7895ZM5.90596 14.4159L6.23804 14.7897L5.90665 15.0841L5.57466 14.7904L5.90596 14.4159ZM4.18549 6.78113C4.18549 5.67656 5.08092 4.78113 6.18549 4.78113C7.29006 4.78113 8.18549 5.67656 8.18549 6.78113C8.18549 7.8857 7.29006 8.78113 6.18549 8.78113C5.08092 8.78113 4.18549 7.8857 4.18549 6.78113ZM6.18549 3.78113C4.52863 3.78113 3.18549 5.12427 3.18549 6.78113C3.18549 8.43798 4.52863 9.78113 6.18549 9.78113C7.84234 9.78113 9.18549 8.43798 9.18549 6.78113C9.18549 5.12427 7.84234 3.78113 6.18549 3.78113Z" fill="#8A8A8A"/>
</svg>
