<svg width="162" height="47" viewBox="0 0 162 47" fill="none" xmlns="http://www.w3.org/2000/svg">
<path d="M126.243 5.97378L157.996 0L145.609 19.6811L140.075 15.9083L134.165 19.6811L134.802 12.1991L126.243 5.97378Z" fill="#00A2E7"/>
<path d="M152.47 3.06086C148.978 4.76051 135.329 12.2539 135.329 12.2539L135.594 16.8565L137.406 14.1573C137.406 14.1573 152.144 4.42942 153.153 3.33046C153.775 2.58627 153.037 2.89254 152.47 3.06086Z" fill="white"/>
<path d="M140.099 15.8834L137.405 14.1463L135.626 16.7943L134.786 19.2686L140.099 15.8834Z" fill="#666666"/>
<path d="M110.97 24.8442C115.304 24.0108 128.001 20.8659 131.353 18.9475" stroke="#8A8B8D" stroke-width="0.3" stroke-linecap="round" stroke-linejoin="round"/>
<path d="M5.55469 25.4006V42.4631H2.61328V25.4006H5.55469ZM22.7461 25.4006V42.4631H19.8047L12.1523 30.2404V42.4631H9.21094V25.4006H12.1523L19.8281 37.6467V25.4006H22.7461ZM32.918 25.4006V42.4631H30V25.4006H32.918ZM38.2734 25.4006V27.7443H24.6914V25.4006H38.2734ZM51.6914 40.131V42.4631H42.6328V40.131H51.6914ZM43.4648 25.4006V42.4631H40.5234V25.4006H43.4648ZM50.5078 32.5256V34.8224H42.6328V32.5256H50.5078ZM51.6328 25.4006V27.7443H42.6328V25.4006H51.6328ZM54.0938 25.4006H60.1289C61.4258 25.4006 62.5312 25.5959 63.4453 25.9865C64.3594 26.3771 65.0586 26.9553 65.543 27.7209C66.0352 28.4787 66.2812 29.4162 66.2812 30.5334C66.2812 31.3849 66.125 32.1349 65.8125 32.7834C65.5 33.4318 65.0586 33.9787 64.4883 34.424C63.918 34.8615 63.2383 35.2014 62.4492 35.4435L61.5586 35.8771H56.1328L56.1094 33.5451H60.1758C60.8789 33.5451 61.4648 33.4201 61.9336 33.1701C62.4023 32.9201 62.7539 32.5803 62.9883 32.1506C63.2305 31.7131 63.3516 31.2209 63.3516 30.674C63.3516 30.0803 63.2344 29.5646 63 29.1271C62.7734 28.6818 62.4219 28.342 61.9453 28.1076C61.4688 27.8654 60.8633 27.7443 60.1289 27.7443H57.0352V42.4631H54.0938V25.4006ZM63.832 42.4631L59.8242 34.799L62.9062 34.7873L66.9727 42.3107V42.4631H63.832ZM82.7461 25.4006V42.4631H79.8047L72.1523 30.2404V42.4631H69.2109V25.4006H72.1523L79.8281 37.6467V25.4006H82.7461Z" fill="#009FE8"/>
<path d="M95.2266 38.0685C95.2266 37.717 95.1719 37.4045 95.0625 37.131C94.9609 36.8576 94.7773 36.6076 94.5117 36.381C94.2461 36.1545 93.8711 35.9357 93.3867 35.7248C92.9102 35.506 92.3008 35.2834 91.5586 35.0568C90.7461 34.8068 89.9961 34.5295 89.3086 34.2248C88.6289 33.9123 88.0352 33.5529 87.5273 33.1467C87.0195 32.7326 86.625 32.2599 86.3438 31.7287C86.0625 31.1896 85.9219 30.5685 85.9219 29.8654C85.9219 29.1701 86.0664 28.5373 86.3555 27.967C86.6523 27.3967 87.0703 26.9045 87.6094 26.4904C88.1562 26.0685 88.8008 25.7443 89.543 25.5178C90.2852 25.2834 91.1055 25.1662 92.0039 25.1662C93.2695 25.1662 94.3594 25.4006 95.2734 25.8693C96.1953 26.3381 96.9023 26.967 97.3945 27.756C97.8945 28.5451 98.1445 29.4162 98.1445 30.3693H95.2266C95.2266 29.8068 95.1055 29.3107 94.8633 28.881C94.6289 28.4435 94.2695 28.0998 93.7852 27.8498C93.3086 27.5998 92.7031 27.4748 91.9688 27.4748C91.2734 27.4748 90.6953 27.5803 90.2344 27.7912C89.7734 28.0021 89.4297 28.2873 89.2031 28.6467C88.9766 29.006 88.8633 29.4123 88.8633 29.8654C88.8633 30.1857 88.9375 30.4787 89.0859 30.7443C89.2344 31.0021 89.4609 31.2443 89.7656 31.4709C90.0703 31.6896 90.4531 31.8967 90.9141 32.092C91.375 32.2873 91.918 32.4748 92.543 32.6545C93.4883 32.9357 94.3125 33.2482 95.0156 33.592C95.7188 33.9279 96.3047 34.3107 96.7734 34.7404C97.2422 35.1701 97.5938 35.6584 97.8281 36.2053C98.0625 36.7443 98.1797 37.3576 98.1797 38.0451C98.1797 38.7639 98.0352 39.4123 97.7461 39.9904C97.457 40.5607 97.043 41.049 96.5039 41.4553C95.9727 41.8537 95.332 42.1623 94.582 42.381C93.8398 42.592 93.0117 42.6974 92.0977 42.6974C91.2773 42.6974 90.4688 42.5881 89.6719 42.3693C88.8828 42.1506 88.1641 41.8185 87.5156 41.3732C86.8672 40.9201 86.3516 40.3576 85.9688 39.6857C85.5859 39.006 85.3945 38.2131 85.3945 37.3068H88.3359C88.3359 37.8615 88.4297 38.3342 88.6172 38.7248C88.8125 39.1154 89.082 39.4357 89.4258 39.6857C89.7695 39.9279 90.168 40.1076 90.6211 40.2248C91.082 40.342 91.5742 40.4006 92.0977 40.4006C92.7852 40.4006 93.3594 40.3029 93.8203 40.1076C94.2891 39.9123 94.6406 39.6389 94.875 39.2873C95.1094 38.9357 95.2266 38.5295 95.2266 38.0685ZM112.055 32.5256V34.8576H102.996V32.5256H112.055ZM103.723 25.4006V42.4631H100.781V25.4006H103.723ZM114.316 25.4006V42.4631H111.387V25.4006H114.316ZM124.676 27.674L119.578 42.4631H116.496L122.918 25.4006H124.887L124.676 27.674ZM128.941 42.4631L123.832 27.674L123.609 25.4006H125.59L132.035 42.4631H128.941ZM128.695 36.1349V38.467H119.414V36.1349H128.695ZM144.633 40.131V42.4631H136.066V40.131H144.633ZM136.887 25.4006V42.4631H133.945V25.4006H136.887ZM153.785 27.674L148.688 42.4631H145.605L152.027 25.4006H153.996L153.785 27.674ZM158.051 42.4631L152.941 27.674L152.719 25.4006H154.699L161.145 42.4631H158.051ZM157.805 36.1349V38.467H148.523V36.1349H157.805Z" fill="#666666"/>
</svg>
