<svg width="14" height="14" viewBox="0 0 14 14" fill="none" xmlns="http://www.w3.org/2000/svg">
<path fill-rule="evenodd" clip-rule="evenodd" d="M1.5 7C1.5 3.96243 3.96243 1.5 7 1.5C10.0376 1.5 12.5 3.96243 12.5 7C12.5 10.0376 10.0376 12.5 7 12.5C3.96243 12.5 1.5 10.0376 1.5 7ZM7 0.5C3.41015 0.5 0.5 3.41015 0.5 7C0.5 10.5899 3.41015 13.5 7 13.5C10.5899 13.5 13.5 10.5899 13.5 7C13.5 3.41015 10.5899 0.5 7 0.5ZM5.5 8.6193V5.42379L8.05641 7.09353L5.5 8.6193ZM5.58279 4.28345C5.1172 3.97935 4.5 4.31341 4.5 4.86951V9.14772C4.5 9.6911 5.09216 10.0273 5.55875 9.7488L8.98131 7.70608C9.42564 7.44088 9.43859 6.8019 9.00536 6.51893L5.58279 4.28345Z" fill="#8A8A8A"/>
</svg>
