<svg width="14" height="10" viewBox="0 0 14 10" fill="none" xmlns="http://www.w3.org/2000/svg">
<path fill-rule="evenodd" clip-rule="evenodd" d="M2 0.5C1.17157 0.5 0.5 1.17157 0.5 2V8C0.5 8.82843 1.17157 9.5 2 9.5H12C12.8284 9.5 13.5 8.82843 13.5 8V2C13.5 1.17157 12.8284 0.5 12 0.5H2ZM1.5 2C1.5 1.72386 1.72386 1.5 2 1.5H12C12.2761 1.5 12.5 1.72386 12.5 2V8C12.5 8.27614 12.2761 8.5 12 8.5H2C1.72386 8.5 1.5 8.27614 1.5 8V2ZM5.67108 5C5.67108 4.17157 6.34265 3.5 7.17108 3.5C7.99951 3.5 8.67108 4.17157 8.67108 5C8.67108 5.82843 7.99951 6.5 7.17108 6.5C6.34265 6.5 5.67108 5.82843 5.67108 5ZM7.17108 2.5C5.79037 2.5 4.67108 3.61929 4.67108 5C4.67108 6.38071 5.79037 7.5 7.17108 7.5C8.55179 7.5 9.67108 6.38071 9.67108 5C9.67108 3.61929 8.55179 2.5 7.17108 2.5ZM4.23688 5C4.23688 5.55228 3.78916 6 3.23688 6C2.68459 6 2.23688 5.55228 2.23688 5C2.23688 4.44772 2.68459 4 3.23688 4C3.78916 4 4.23688 4.44772 4.23688 5ZM11.1053 6C11.6576 6 12.1053 5.55228 12.1053 5C12.1053 4.44772 11.6576 4 11.1053 4C10.5531 4 10.1053 4.44772 10.1053 5C10.1053 5.55228 10.5531 6 11.1053 6Z" fill="#8A8A8A"/>
</svg>
